<?xml version="1.0" encoding="utf-8"?>
<!-- Generator: Adobe Illustrator 24.3.0, SVG Export Plug-In . SVG Version: 6.00 Build 0)  -->
<svg version="1.1" id="Layer_1" xmlns="http://www.w3.org/2000/svg" xmlns:xlink="http://www.w3.org/1999/xlink" x="0px" y="0px"
	 viewBox="0 0 369.16 146.28" style="enable-background:new 0 0 369.16 146.28;" xml:space="preserve">
<style type="text/css">
	.st0{fill:#004994;}
</style>

<g>
	<path class="st0" d="M40.08,85.53c16.71,0,28.9-10.88,31.91-25.4v23.87h15.29V54.25c0-1.36,0.08-2.86,0.13-4.25
		c0.28-9.06,6.21-14.47,15.66-14.63c-3.28,5.09-5.19,11.14-5.19,17.64c0,18.03,14.62,32.64,32.65,32.64
		c15.89,0,29.11-11.33,32.03-26.36v0.07c0,15.68,12.61,26.37,27.76,26.37c6.4,0,12.05-2.74,16.36-7.22V84h15.25V51.27
		c0.01-0.61,0.04-1.13,0.07-1.64c0.38-10.4,6.46-14.91,13.16-14.91c6.65,0,12.38,4.53,12.61,14.86c0.05,0.89,0.06,1.48,0.06,2.5V84
		l15.46,0V59.7c2.87,15.7,16.15,25.83,32,25.83c17.94,0,28.08-11.49,30.79-23.49h-14.96c-1.3,4.27-6.61,10.83-15.84,10.83
		c-8.32,0-15.4-5.69-17.19-14.95h49.68v26.09h15.32V54.25c0-1.36,0.08-2.86,0.11-4.25c0.3-9.21,6.41-14.64,16.09-14.64h1.68v-14.6
		h-1.68c-20.28,0-31.07,11.37-31.5,26.11c-2.92-16.03-16.76-26.5-32.51-26.5c-15.71,0-29.11,10.46-31.99,26.37
		c-0.01-14.13-11.04-26.34-25.38-26.34c-6.24,0-11.64,2.41-15.97,6.59V6.41h-15.25V52.2c0,1.5-0.07,2.47-0.27,4.71
		c-0.93,9.5-7.33,14.2-14.31,14.2c-7.24,0-13.77-3.42-13.97-14.15c-0.04-1.86-0.08-2.63-0.08-3.95V35.86h23.76V21.47h-23.76V6.41
		h-15.48v40.34c-2.92-15.02-16.14-26.36-32.03-26.36c-10.23,0-19.35,4.7-25.35,12.06V20.76h-1.69c-19.94,0-30.7,10.99-31.46,25.37
		c-2.92-14.56-14.96-25.37-30.18-25.37c-7.98,0-14.19,2.89-19.06,7.76V6.27H7.9v38.64c0,2.85,0.07,5.53,0.1,8.1
		C8.2,70.88,20.72,85.53,40.08,85.53 M295.28,33.24c9.68,0,15.46,7.77,16.59,12.61h-33.1C281.29,38.06,287.75,33.24,295.28,33.24
		 M130.54,35.19c10.12,0,17.83,7.84,17.83,17.83c0,10.01-7.76,17.83-17.83,17.83c-10.07,0-17.83-7.88-17.83-17.83
		C112.72,43.06,120.42,35.19,130.54,35.19 M40.08,35.19c10.12,0,17.82,7.84,17.82,17.83c0,10.01-7.75,17.83-17.82,17.83
		c-10.08,0-17.83-7.88-17.83-17.83C22.26,43.06,29.97,35.19,40.08,35.19z"/>
	<path class="st0" d="M84.17,120.71c0,0.45-0.05,0.95-0.2,1.39c-0.7,2.04-2.73,4.03-5.91,4.03c-2.18,0-4.08-1.37-4.08-4.17
		c0-4.67,5.42-5.52,10.19-5.42V120.71 M88.44,114.05c0-4.82-1.79-9.83-9.2-9.83c-3.03,0-5.96,0.84-7.95,2.08l0.99,2.93
		c1.69-1.14,4.03-1.79,6.31-1.79c4.92-0.05,5.46,3.57,5.46,5.56v0.49c-9.29-0.04-14.46,3.14-14.46,8.96c0,3.47,2.49,6.9,7.36,6.9
		c3.43,0,6.06-1.69,7.36-3.58h0.14l0.4,3.04h3.92c-0.24-1.64-0.34-3.67-0.34-5.76V114.05z"/>
	<path class="st0" d="M100.22,98.56v6.2h6.26v3.26h-6.26v13.04c0,3.64,1.3,4.66,3.37,4.66c0.96,0,1.62-0.1,2.45-0.29l0.2,3.33
		c-0.77,0.27-2.1,0.6-3.87,0.6c-3.87,0-6.42-2.43-6.42-7.56v-13.77h-3.72v-3.26h3.72V99.9L100.22,98.56z"/>
	<path class="st0" d="M124.02,104.76l5.22,14.22c0.59,1.6,1.15,3.32,1.55,4.76h0.1c0.45-1.44,0.98-3.12,1.58-4.86l4.77-14.11h4.62
		l-6.56,17.15c-3.13,8.24-5.26,12.47-8.25,15.1c-2.18,1.84-4.27,2.58-5.37,2.79l-1.09-3.68c1.09-0.3,2.53-0.99,3.83-2.14
		c1.19-0.94,2.63-2.63,3.68-4.87c0.2-0.45,0.35-0.74,0.35-1.04c0-0.25-0.1-0.59-0.35-1.1l-8.85-22.21H124.02z"/>
	<path class="st0" d="M154.32,126.2c-4.22,0-7.2-4.04-7.2-9.36c0-4.62,2.24-9.47,7.35-9.47c5.17,0,7.21,5.2,7.21,9.31
		c0,5.52-3.13,9.51-7.31,9.51H154.32 M154.23,129.36c5.71,0,11.93-3.87,11.93-12.82c0-7.3-4.67-12.32-11.58-12.32
		c-6.61,0-11.93,4.72-11.93,12.76c0,7.61,5.07,12.38,11.53,12.38H154.23z"/>
	<path class="st0" d="M190.55,122.25c0,2.48,0.05,4.67,0.2,6.56h-3.81l-0.24-3.92h-0.1c-1.09,1.94-3.68,4.47-7.95,4.47
		c-3.78,0-8.3-2.14-8.3-10.53v-14.07h4.3v13.27c0,4.76,1.52,7.73,5.45,7.73c2.93,0,4.96-2.07,5.76-4.05c0.25-0.6,0.39-1.4,0.39-2.24
		v-14.71h4.31V122.25z"/>
	<path class="st0" d="M197.31,112.26c0-2.83-0.03-5.26-0.2-7.5h3.93l0.22,4.73h0.16c1.2-3.23,4.16-5.26,7.37-5.26
		c0.5,0,0.88,0.04,1.32,0.14v4.08c-0.54-0.05-1.04-0.1-1.69-0.1c-3.4,0-5.8,2.34-6.46,5.56c-0.11,0.64-0.17,1.35-0.17,2.09v12.82
		h-4.49V112.26z"/>
	<path class="st0" d="M219.85,124.61c1.67,0.74,4.43,1.47,6.56,1.47c3.44,0,5.45-1.54,5.45-3.58c0-1.81-1.19-2.84-5.73-4.41
		c-4.78-1.67-6.8-3.82-6.8-6.73c0-3.88,2.76-7.14,8.96-7.14c2.68,0,5.09,0.63,6.58,1.44l-1.13,2.99c-1.43-0.7-3.4-1.21-5.52-1.21
		c-3.12,0-4.86,1.68-4.86,3.28c0,1.67,0.84,2.34,5.58,3.98c4.99,1.71,6.95,3.9,6.95,7.3c0,4.27-3.25,7.34-9.6,7.34
		c-2.89,0-5.77-0.65-7.63-1.65L219.85,124.61z"/>
	<path class="st0" d="M240.98,128.81v-24.06h4.27v24.06H240.98 M243.02,100.33c-1.64,0-2.73-1.28-2.73-2.83
		c0-1.53,1.14-2.78,2.83-2.78c1.69,0,2.78,1.25,2.78,2.78c0,1.55-1.09,2.83-2.83,2.83H243.02z"/>
	<path class="st0" d="M268.35,118.72c0,0.69-0.05,1.3-0.2,1.89c-0.8,3.22-3.49,5.21-6.41,5.21c-4.67,0-7.11-4.03-7.11-8.95
		c0-5.27,2.69-9.25,7.21-9.25c3.28,0,5.67,2.3,6.31,5.03c0.15,0.6,0.2,1.29,0.2,1.88V118.72 M268.35,94.9v12.95h-0.1
		c-1.04-1.89-3.53-3.63-7.25-3.63c-5.82,0-10.84,4.87-10.79,12.91c0,7.31,4.52,12.23,10.34,12.23c3.93,0,6.81-2.03,8.15-4.72h0.1
		l0.2,4.17h3.82c-0.14-1.64-0.2-4.08-0.2-6.21V94.9H268.35z"/>
	<path class="st0" d="M280.71,114.45c0.35-3.02,2.24-7.1,6.71-7.1c4.87,0,6.06,4.38,6.02,7.1H280.71 M297.52,117.61
		c0.1-0.5,0.14-1.18,0.14-2.07c0-4.42-2.04-11.32-9.89-11.32c-7,0-11.33,5.72-11.33,13.01c0,7.21,4.47,12.12,11.83,12.12
		c3.25,0,5.76-0.53,8.03-1.6l-0.79-3.03c-1.58,0.65-3.52,1.2-6.65,1.2c-4.38,0-8.1-2.41-8.2-8.32H297.52z"/>
</g>
</svg>
